<?xml version="1.0" encoding="utf-8"?>
<!-- Generator: Adobe Illustrator 23.0.0, SVG Export Plug-In . SVG Version: 6.00 Build 0)  -->
<svg version="1.1" id="Layer_1" xmlns="http://www.w3.org/2000/svg" xmlns:xlink="http://www.w3.org/1999/xlink" x="0px" y="0px"
	 viewBox="0 0 841.89 595.28" style="enable-background:new 0 0 841.89 595.28;" xml:space="preserve">
<style type="text/css">
	.st0{fill:#575756;}
	.st1{fill:#4CBADB;}
	.st2{fill:#7CBA30;}
	.st3{fill:#FDC300;}
	.st4{fill:#B81818;}
</style>
<g>
	<path class="st0" d="M759.48,185.29c-0.58-0.82-5.18-0.66-8.34,1.55c-1.02,0.71-2.03,1.68-2.94,2.66l-3.71-0.73l-4.82,2.74
		l5.89,1.16l0.11-0.14c-0.54,0.71-0.86,1.19-0.86,1.19l0.31,0.45c-3.79,2.47-8.6,5.28-12,6.78c-3.95-11.46-16.05-18.24-28.06-15.32
		c-12.74,3.1-20.56,15.94-17.47,28.69c0.6,2.45,1.56,4.72,2.81,6.76c-5.51,0.74-9.5,0.16-11.2-1.73c-2.45-2.74,0.71-6.58,4.87-9.47
		c0.05-0.86,0.11-2.82,0.35-3.74c-9.52,3.1-18.54,12.95-16.49,18.15c2.87,7.29,25.91,2.94,50.54-9.56
		c8.3-4.21,19.34-11.56,27.89-18.77l0.17,0.24c0,0,0.55-0.14,1.41-0.4l-0.17,0.06l-0.92,5.94l4.22-3.6l0.58-3.73
		c1.23-0.52,2.49-1.15,3.51-1.86C758.34,190.39,760.06,186.12,759.48,185.29z M756.21,188.86c-0.12,0.79-0.86,1.31-1.65,1.15
		c-0.79-0.15-1.32-0.92-1.2-1.71c0.12-0.79,0.86-1.31,1.65-1.15C755.79,187.31,756.33,188.07,756.21,188.86z"/>
	<path class="st0" d="M697.54,228.48c5.33,3.54,12.05,4.93,18.76,3.3c11.44-2.78,18.91-13.41,18.08-24.77
		C727.52,214.59,710.32,224.18,697.54,228.48z"/>
</g>
<circle class="st1" cx="418.29" cy="208.48" r="23.98"/>
<circle class="st2" cx="491.3" cy="208.48" r="23.98"/>
<circle class="st3" cx="564.32" cy="208.48" r="23.98"/>
<circle class="st4" cx="637.57" cy="208.48" r="23.98"/>
<path class="st0" d="M145.88,331.12v-70.1c0-2.16-1.08-3.24-3.24-3.24h-11.96c-8.56,0-12.84,2.36-12.84,7.08v1.03h14.02v19.92
	h-14.02v56.08H92.31v-56.08h-9.3v-19.92h9.3v-1.77c0-5.8,1.18-10.7,3.54-14.69c2.36-3.98,5.51-6.83,9.44-8.56
	c3.93-1.72,7.57-2.9,10.92-3.54c3.34-0.63,6.93-0.95,10.77-0.95h33.65c3.74,0,6.46,0.86,8.19,2.58c1.72,1.72,2.58,4.45,2.58,8.19
	v70.1c0,2.16,1.08,3.24,3.24,3.24h5.61v21.4h-23.62c-3.74,0-6.47-0.86-8.19-2.58C146.74,337.59,145.88,334.86,145.88,331.12"/>
<path class="st0" d="M191.08,331.12v-40.59c0-2.16-1.09-3.24-3.25-3.24h-5.61v-21.39h23.62c3.74,0,6.47,0.86,8.19,2.58
	c1.72,1.72,2.59,4.45,2.59,8.19v40.58c0,2.16,1.08,3.24,3.24,3.24h5.61v21.39h-23.61c-3.75,0-6.48-0.86-8.19-2.58
	C191.94,337.59,191.08,334.86,191.08,331.12"/>
<path class="st0" d="M236.13,371.41v-80.87c0-2.16-1.08-3.25-3.24-3.25h-5.61v-21.4h21.99c3.44,0,5.95,0.64,7.53,1.92
	c1.57,1.28,2.36,2.86,2.36,4.72v1.33h0.29c0.19-0.3,0.47-0.67,0.81-1.11c0.35-0.44,1.18-1.2,2.51-2.28
	c1.33-1.08,2.81-2.06,4.42-2.96c1.63-0.88,3.77-1.67,6.42-2.35c2.66-0.69,5.51-1.03,8.56-1.03c10.33,0,18.62,3.66,24.87,10.99
	c6.25,7.33,9.37,16.95,9.37,28.85c0,11.9-3.35,21.5-10.03,28.78c-6.69,7.27-15.16,10.92-25.38,10.92c-3.64,0-7.08-0.54-10.33-1.62
	c-3.24-1.08-5.56-2.17-6.93-3.25l-2.07-1.62h-0.29c0.19,1.77,0.29,3.94,0.29,6.49v27.74H236.13z M260.93,304.41
	c0,4.92,1.3,9.17,3.91,12.76c2.61,3.6,6.27,5.39,10.99,5.39c4.23,0,7.77-1.62,10.63-4.87c2.85-3.24,4.27-7.67,4.27-13.28
	c0-5.61-1.38-10.13-4.13-13.58c-2.76-3.44-6.34-5.16-10.77-5.16c-4.23,0-7.77,1.58-10.62,4.72
	C262.35,293.54,260.93,298.21,260.93,304.41"/>
<path class="st0" d="M321.94,303.82c0-11.41,3.59-20.88,10.77-28.41c7.18-7.53,16.77-11.29,28.78-11.29
	c10.92,0,19.5,3.42,25.75,10.26c6.25,6.84,9.37,15.67,9.37,26.48l-0.59,7.68h-47.96c0.89,4.53,2.98,7.97,6.27,10.33
	c3.29,2.36,7.11,3.54,11.44,3.54c3.25,0,6.54-0.67,9.89-1.99c3.34-1.33,5.9-2.63,7.67-3.91l2.66-2.07l10.18,17.12
	c-0.3,0.3-0.76,0.71-1.4,1.25c-0.64,0.54-2.04,1.53-4.2,2.95c-2.16,1.43-4.4,2.66-6.72,3.69c-2.31,1.03-5.31,1.99-9.01,2.88
	c-3.69,0.88-7.4,1.32-11.14,1.32c-12.89,0-23.07-3.93-30.55-11.8C325.68,323.98,321.94,314.64,321.94,303.82 M348.8,293.04h21.69
	c0-2.46-0.86-4.69-2.58-6.72c-1.73-2.01-3.87-3.03-6.42-3.03C354.89,283.3,350.67,286.55,348.8,293.04"/>
<path class="st0" d="M406.52,341.89v-51.36c0-2.16-1.08-3.24-3.25-3.24h-5.61v-21.4h22.57c7.19,0,10.78,3.24,10.78,9.74v3.99
	l-0.3,3.83h0.3c1.67-5.31,4.74-9.78,9.22-13.43c4.47-3.64,9.46-5.47,14.97-5.47l2.96,0.3v25.09c-1.38-0.3-3.1-0.45-5.16-0.45
	c-10.23,0-16.78,4.43-19.63,13.28c-0.89,2.86-1.33,6.3-1.33,10.33v28.78H406.52z"/>
<path class="st0" d="M459.71,319.17c0-5.22,1.67-9.64,5.02-13.29c3.35-3.63,7.65-6.24,12.92-7.82c5.26-1.57,9.96-2.63,14.09-3.17
	c4.13-0.54,8.17-0.81,12.1-0.81h1.04v-0.88c0-3.54-0.81-6.07-2.44-7.6c-1.62-1.52-4.06-2.29-7.3-2.29c-4.43,0-6.65,1.24-6.65,3.69
	v3.39h-23.61v-8.41c0-11.91,10.08-17.86,30.25-17.86c23.52,0,35.27,10.33,35.27,30.99v22.14c0,2.16,1.08,3.24,3.24,3.24h5.61v21.39
	h-22.14c-3.34,0-5.85-0.81-7.53-2.43c-1.67-1.62-2.5-3.46-2.5-5.54v-1.32h-0.3c-0.1,0.29-0.32,0.69-0.66,1.17
	c-0.34,0.5-1.11,1.38-2.29,2.66c-1.17,1.28-2.48,2.41-3.91,3.39c-1.43,0.99-3.44,1.87-6.05,2.66c-2.61,0.79-5.39,1.18-8.34,1.18
	c-7.28,0-13.4-2.24-18.37-6.72C462.19,332.47,459.71,326.54,459.71,319.17 M485.39,317.84c0,1.87,0.62,3.39,1.85,4.57
	c1.23,1.18,3.03,1.77,5.38,1.77c3.25,0,6.15-1.43,8.7-4.28c2.56-2.85,3.84-5.9,3.84-9.15v-1.18h-2.36c-4.63,0-8.68,0.69-12.18,2.06
	C487.13,313.02,485.39,315.09,485.39,317.84"/>
<path class="st0" d="M549.18,341.89v-51.36c0-2.16-1.08-3.24-3.25-3.24h-5.61v-21.4h22.87c3.44,0,6.08,0.76,7.9,2.29
	c1.82,1.52,2.73,3.61,2.73,6.27v1.04l-0.15,1.77h0.29c5.81-8.75,13.23-13.13,22.29-13.13c10.23,0,17.31,4.28,21.25,12.84h0.29
	c2.16-3.54,5.44-6.57,9.81-9.08c4.38-2.51,9.22-3.76,14.53-3.76c7.48,0,13.46,2.26,17.93,6.79c4.47,4.52,6.72,11.76,6.72,21.69
	v24.65c0,2.16,1.08,3.25,3.24,3.25h5.61v21.4h-23.61c-3.74,0-6.47-0.86-8.19-2.58c-1.72-1.72-2.59-4.45-2.59-8.19v-34.23
	c0-6.4-1.97-9.59-5.9-9.59c-3.64,0-6.62,1.33-8.93,3.98c-2.31,2.66-3.91,6.2-4.79,10.62c-0.6,2.66-0.89,5.52-0.89,8.56v31.43h-25.54
	v-45.01c0-6.4-1.96-9.59-5.9-9.59c-6.99,0-11.51,4.67-13.58,14.02c-0.69,3.25-1.03,6.29-1.03,9.15v31.43H549.18z"/>
<path class="st0" d="M680.44,319.17c0-5.22,1.67-9.64,5.02-13.29c3.35-3.63,7.65-6.24,12.91-7.82c5.26-1.57,9.96-2.63,14.1-3.17
	c4.13-0.54,8.17-0.81,12.1-0.81h1.04v-0.88c0-3.54-0.81-6.07-2.43-7.6c-1.62-1.52-4.06-2.29-7.31-2.29c-4.42,0-6.64,1.24-6.64,3.69
	v3.39h-23.61v-8.41c0-11.91,10.08-17.86,30.25-17.86c23.52,0,35.27,10.33,35.27,30.99v22.14c0,2.16,1.08,3.24,3.25,3.24h5.61v21.39
	h-22.14c-3.34,0-5.85-0.81-7.53-2.43c-1.67-1.62-2.5-3.46-2.5-5.54v-1.32h-0.29c-0.1,0.29-0.32,0.69-0.67,1.17
	c-0.34,0.5-1.11,1.38-2.29,2.66c-1.17,1.28-2.48,2.41-3.91,3.39c-1.43,0.99-3.44,1.87-6.05,2.66c-2.61,0.79-5.39,1.18-8.34,1.18
	c-7.28,0-13.4-2.24-18.37-6.72C682.92,332.47,680.44,326.54,680.44,319.17 M706.12,317.84c0,1.87,0.61,3.39,1.84,4.57
	c1.23,1.18,3.02,1.77,5.38,1.77c3.25,0,6.15-1.43,8.7-4.28c2.56-2.85,3.84-5.9,3.84-9.15v-1.18h-2.36c-4.63,0-8.68,0.69-12.18,2.06
	C707.86,313.02,706.12,315.09,706.12,317.84"/>
<g>
	<path class="st0" d="M335.15,373.95c7.39,0,11.34,5.51,11.34,12.33c0,0.68-0.16,2.08-0.16,2.08h-19.19
		c0.31,5.62,4.37,8.79,9.05,8.79c4.53,0,7.7-3.07,7.7-3.07l2.18,3.59c0,0-3.9,3.85-10.14,3.85c-8.32,0-13.99-5.98-13.99-13.79
		C321.94,379.36,327.66,373.95,335.15,373.95z M341.29,384.66c-0.16-4.37-2.91-6.71-6.19-6.71c-3.85,0-6.97,2.34-7.75,6.71H341.29z"
		/>
	<path class="st0" d="M350.18,393.51c0,0,3.12,3.9,7.96,3.9c2.44,0,4.58-1.09,4.58-3.38c0-4.73-14.36-4.21-14.36-12.69
		c0-5.05,4.42-7.39,9.78-7.39c3.17,0,8.63,1.09,8.63,5.1v2.5h-4.53v-1.3c0-1.56-2.34-2.24-3.95-2.24c-2.97,0-4.89,1.04-4.89,3.12
		c0,4.99,14.36,3.9,14.36,12.69c0,4.68-4.16,7.7-9.68,7.7c-7.02,0-10.51-4.63-10.51-4.63L350.18,393.51z"/>
	<path class="st0" d="M371.61,380.03c0-0.78-0.42-1.14-1.14-1.14h-2.13v-4.32h4.73c2.34,0,3.22,0.99,3.22,2.65
		c0,0.78-0.05,1.4-0.05,1.4h0.1c0,0,2.19-4.68,8.74-4.68c7.07,0,11.6,5.62,11.6,13.78c0,8.38-5.1,13.79-11.96,13.79
		c-5.83,0-8.06-4.21-8.06-4.21h-0.1c0,0,0.1,0.94,0.1,2.29v11.7h-5.05V380.03z M383.93,397.2c4.16,0,7.59-3.43,7.59-9.41
		c0-5.72-3.07-9.42-7.44-9.42c-3.9,0-7.59,2.76-7.59,9.47C376.5,392.52,379.05,397.2,383.93,397.2z"/>
	<path class="st0" d="M413.53,384.51h1.14v-0.26c0-4.63-1.72-6.29-5.83-6.29c-1.25,0-4.32,0.31-4.32,2.03v1.51h-4.73v-2.6
		c0-4.32,6.55-4.94,9.1-4.94c8.53,0,10.82,4.47,10.82,10.3v11.18c0,0.78,0.42,1.14,1.14,1.14h2.13v4.32h-4.73
		c-2.34,0-3.28-1.14-3.28-3.02c0-0.88,0.1-1.56,0.1-1.56h-0.1c0,0-2.08,5.2-8.37,5.2c-4.53,0-8.95-2.76-8.95-8.01
		C397.66,385.03,409.1,384.51,413.53,384.51z M407.7,397.46c4.27,0,7.02-4.47,7.02-8.37v-0.88h-1.3c-3.8,0-10.66,0.21-10.66,5.05
		C402.76,395.38,404.37,397.46,407.7,397.46z"/>
	<path class="st0" d="M437.45,373.95c3.17,0,9.47,1.3,9.47,5.77v2.71h-4.58v-1.46c0-1.87-2.96-2.7-4.89-2.7c-5.15,0-9,3.85-9,9.41
		c0,5.98,4.37,9.36,9.26,9.36c4.94,0,8.17-3.64,8.17-3.64l2.18,3.59c0,0-3.69,4.47-10.66,4.53l-0.42,1.98
		c2.13,0.26,3.75,1.56,3.75,3.8c0,3.23-2.65,4.37-5.31,4.37c-1.66,0-2.91-0.36-2.91-0.36v-3.02c0,0,1.04,0.36,2.24,0.36
		c1.3,0,2.45-0.42,2.45-1.61c0-1.09-1.09-1.61-2.7-1.61c-0.47,0-0.94,0.05-0.94,0.05l1.04-4.21c-6.71-1.09-11.29-6.5-11.29-13.52
		C423.3,379.98,428.97,373.95,437.45,373.95z"/>
	<path class="st0" d="M462.57,373.95c7.85,0,14.2,5.77,14.2,13.73c0,8.01-6.35,13.84-14.2,13.84s-14.15-5.83-14.15-13.84
		C448.42,379.72,454.71,373.95,462.57,373.95z M462.57,397.15c4.99,0,9.05-3.95,9.05-9.47c0-5.46-4.06-9.36-9.05-9.36
		c-4.94,0-9,3.9-9,9.36C453.57,393.2,457.62,397.15,462.57,397.15z"/>
	<path class="st0" d="M503.44,373.95c3.17,0,9.47,1.3,9.47,5.77v2.71h-4.58v-1.46c0-1.87-2.96-2.7-4.89-2.7c-5.15,0-9,3.85-9,9.41
		c0,5.98,4.37,9.36,9.26,9.36c4.94,0,8.17-3.64,8.17-3.64l2.18,3.59c0,0-3.75,4.53-10.72,4.53c-8.27,0-14.04-5.88-14.04-13.79
		C489.29,379.98,494.96,373.95,503.44,373.95z"/>
	<path class="st0" d="M528.56,373.95c7.85,0,14.2,5.77,14.2,13.73c0,8.01-6.35,13.84-14.2,13.84c-7.85,0-14.15-5.83-14.15-13.84
		C514.41,379.72,520.7,373.95,528.56,373.95z M528.56,397.15c4.99,0,9.05-3.95,9.05-9.47c0-5.46-4.06-9.36-9.05-9.36
		c-4.94,0-9,3.9-9,9.36C519.56,393.2,523.62,397.15,528.56,397.15z"/>
	<path class="st0" d="M545.87,369.63c0-0.78-0.42-1.14-1.14-1.14h-2.13v-4.32h4.99c2.34,0,3.33,0.99,3.33,3.33v27.93
		c0,0.78,0.42,1.14,1.14,1.14h2.13v4.32h-4.99c-2.34,0-3.33-0.99-3.33-3.33V369.63z"/>
	<path class="st0" d="M570.69,384.51h1.14v-0.26c0-4.63-1.72-6.29-5.82-6.29c-1.25,0-4.32,0.31-4.32,2.03v1.51h-4.73v-2.6
		c0-4.32,6.55-4.94,9.1-4.94c8.53,0,10.82,4.47,10.82,10.3v11.18c0,0.78,0.42,1.14,1.14,1.14h2.13v4.32h-4.73
		c-2.34,0-3.28-1.14-3.28-3.02c0-0.88,0.1-1.56,0.1-1.56h-0.1c0,0-2.08,5.2-8.38,5.2c-4.52,0-8.95-2.76-8.95-8.01
		C554.82,385.03,566.26,384.51,570.69,384.51z M564.86,397.46c4.26,0,7.02-4.47,7.02-8.37v-0.88h-1.3c-3.8,0-10.66,0.21-10.66,5.05
		C559.92,395.38,561.53,397.46,564.86,397.46z"/>
	<path class="st0" d="M582.8,369.63c0-0.78-0.42-1.14-1.14-1.14h-2.13v-4.32h4.99c2.34,0,3.33,0.99,3.33,3.33v8.58
		c0,1.25-0.1,2.19-0.1,2.19h0.1c0,0,2.29-4.32,8.48-4.32c7.07,0,11.55,5.62,11.55,13.78c0,8.38-5.05,13.79-11.96,13.79
		c-5.88,0-8.27-4.42-8.27-4.42h-0.11c0,0,0.11,0.83,0.11,1.98v1.82h-4.84V369.63z M595.18,397.2c4.16,0,7.59-3.43,7.59-9.41
		c0-5.72-3.07-9.42-7.49-9.42c-3.9,0-7.54,2.76-7.54,9.47C587.74,392.52,590.19,397.2,595.18,397.2z"/>
	<path class="st0" d="M623.21,373.95c7.85,0,14.2,5.77,14.2,13.73c0,8.01-6.35,13.84-14.2,13.84c-7.85,0-14.15-5.83-14.15-13.84
		C609.06,379.72,615.35,373.95,623.21,373.95z M623.21,397.15c4.99,0,9.05-3.95,9.05-9.47c0-5.46-4.06-9.36-9.05-9.36
		c-4.94,0-9,3.9-9,9.36C614.21,393.2,618.27,397.15,623.21,397.15z"/>
	<path class="st0" d="M641.1,380.03c0-0.78-0.42-1.14-1.14-1.14h-2.13v-4.32h4.79c2.29,0,3.38,0.94,3.38,3.07v1.66
		c0,1.04-0.1,1.82-0.1,1.82h0.1c1.25-3.85,4.26-6.87,8.32-6.87c0.68,0,1.35,0.1,1.35,0.1v4.99c0,0-0.68-0.16-1.51-0.16
		c-3.23,0-6.19,2.29-7.39,6.19c-0.47,1.51-0.62,3.12-0.62,4.73v10.77h-5.04V380.03z"/>
	<path class="st0" d="M670.38,384.51h1.14v-0.26c0-4.63-1.72-6.29-5.82-6.29c-1.25,0-4.32,0.31-4.32,2.03v1.51h-4.73v-2.6
		c0-4.32,6.55-4.94,9.1-4.94c8.53,0,10.82,4.47,10.82,10.3v11.18c0,0.78,0.42,1.14,1.14,1.14h2.13v4.32h-4.73
		c-2.34,0-3.28-1.14-3.28-3.02c0-0.88,0.1-1.56,0.1-1.56h-0.1c0,0-2.08,5.2-8.38,5.2c-4.52,0-8.95-2.76-8.95-8.01
		C654.51,385.03,665.96,384.51,670.38,384.51z M664.55,397.46c4.26,0,7.02-4.47,7.02-8.37v-0.88h-1.3c-3.8,0-10.66,0.21-10.66,5.05
		C659.61,395.38,661.22,397.46,664.55,397.46z"/>
	<path class="st0" d="M682.91,378.63h-3.43v-4.06h3.54v-7.23h4.94v7.23h6.29v4.06h-6.29v12.07c0,5.25,3.64,5.93,5.57,5.93
		c0.73,0,1.2-0.1,1.2-0.1V401c0,0-0.68,0.1-1.77,0.1c-3.33,0-10.04-1.04-10.04-9.83V378.63z"/>
	<path class="st0" d="M698.67,380.03c0-0.78-0.42-1.14-1.14-1.14h-2.13v-4.32h4.94c2.34,0,3.33,0.99,3.33,3.33v17.53
		c0,0.78,0.42,1.14,1.14,1.14h2.13v4.32H702c-2.34,0-3.33-0.99-3.33-3.33V380.03z M698.77,364.17h4.53v5.25h-4.53V364.17z"/>
	<path class="st0" d="M708.24,379.93c-0.31-0.78-0.78-1.04-1.61-1.04h-0.52v-4.32h2.6c2.34,0,3.23,0.57,4.01,2.65l5.67,15.14
		c0.52,1.46,0.94,3.43,0.94,3.43h0.1c0,0,0.42-1.98,0.94-3.43l5.62-15.14c0.78-2.08,1.72-2.65,4.01-2.65h2.45v4.32h-0.52
		c-0.89,0-1.4,0.26-1.72,1.04l-8.01,20.96h-5.83L708.24,379.93z"/>
	<path class="st0" d="M746,373.95c7.85,0,14.2,5.77,14.2,13.73c0,8.01-6.35,13.84-14.2,13.84c-7.85,0-14.15-5.83-14.15-13.84
		C731.85,379.72,738.14,373.95,746,373.95z M746,397.15c4.99,0,9.05-3.95,9.05-9.47c0-5.46-4.06-9.36-9.05-9.36
		c-4.94,0-9,3.9-9,9.36C737,393.2,741.05,397.15,746,397.15z"/>
</g>
</svg>
